<?xml version="1.0" standalone="no"?>
<!DOCTYPE svg PUBLIC "-//W3C//DTD SVG 20010904//EN"
 "http://www.w3.org/TR/2001/REC-SVG-20010904/DTD/svg10.dtd">
<svg version="1.0" xmlns="http://www.w3.org/2000/svg"
 width="512.000000pt" height="512.000000pt" viewBox="0 0 512.000000 512.000000"
 preserveAspectRatio="xMidYMid meet">
<metadata>
Created by potrace 1.14, written by Peter Selinger 2001-2017
</metadata>
<g transform="translate(0.000000,512.000000) scale(0.100000,-0.100000)"
fill="#000000" stroke="none">
<path d="M0 2560 l0 -2560 2560 0 2560 0 0 2560 0 2560 -2560 0 -2560 0 0
-2560z m2842 2275 c166 -148 460 -412 653 -585 194 -173 447 -400 564 -504
116 -104 214 -192 217 -197 3 -5 -107 -9 -249 -9 l-255 0 -237 213 c-131 116
-409 366 -618 555 -210 188 -385 341 -388 340 -10 -4 -164 -139 -519 -458
-168 -151 -339 -304 -380 -340 -41 -36 -135 -120 -209 -187 l-136 -123 -252 0
c-139 0 -253 3 -252 8 0 4 59 59 131 122 72 63 292 259 488 435 197 176 516
462 709 635 194 173 366 328 382 343 17 16 34 27 39 25 5 -2 146 -124 312
-273z m-94 -1731 c60 -29 79 -45 103 -82 55 -87 61 -169 20 -251 -31 -59 -65
-94 -136 -141 l-66 -43 28 -29 c15 -17 63 -62 107 -101 91 -83 93 -82 123 34
9 38 21 69 25 69 5 0 125 -35 185 -55 17 -6 -11 -103 -53 -187 -19 -37 -34
-73 -34 -81 0 -7 27 -36 60 -65 33 -29 60 -57 60 -61 0 -11 -122 -151 -133
-151 -5 0 -37 27 -72 61 l-64 61 -46 -32 c-208 -143 -558 -128 -712 32 -77 79
-97 209 -49 313 28 62 90 127 170 181 31 20 56 40 56 44 0 4 -9 15 -20 25 -39
35 -81 114 -92 172 -9 49 -8 68 6 117 54 186 324 272 534 170z m-1640 11 c96
-23 171 -63 233 -124 80 -80 103 -144 104 -281 0 -97 -2 -110 -31 -170 -34
-71 -94 -138 -161 -176 l-42 -26 57 -81 c31 -45 89 -128 129 -184 l73 -103
-143 0 -142 0 -110 160 -109 160 -128 0 -128 0 0 -160 0 -160 -135 0 -135 0 0
580 0 580 303 0 c232 0 317 -4 365 -15z m3602 -90 l0 -105 -305 0 -305 0 0
-155 0 -155 270 0 271 0 -3 -107 -3 -108 -267 -3 -268 -2 0 -210 0 -210 -135
0 -135 0 0 580 0 580 440 0 440 0 0 -105z m-849 -1889 c37 -8 85 -24 108 -35
l41 -21 -21 -53 c-12 -28 -24 -60 -27 -70 -3 -12 -10 -16 -21 -11 -130 54
-242 68 -316 39 -50 -18 -65 -38 -65 -84 0 -53 38 -75 192 -110 198 -45 298
-126 298 -242 0 -176 -192 -289 -437 -259 -117 15 -253 67 -253 97 0 10 26 70
56 131 1 2 17 -6 35 -18 97 -59 299 -82 366 -40 35 21 49 55 39 94 -8 32 -64
58 -194 91 -134 33 -200 63 -240 109 -42 48 -52 75 -52 137 0 84 45 159 126
209 76 47 236 63 365 36z m-3361 -416 l0 -420 -95 0 -95 0 0 420 0 420 95 0
95 0 0 -420z m487 282 c61 -75 153 -188 204 -249 50 -62 95 -113 100 -113 5 0
9 112 9 250 l0 250 95 0 95 0 0 -420 0 -420 -79 0 -79 0 -112 137 c-62 76
-153 188 -204 250 -50 62 -94 112 -98 112 -5 1 -8 -111 -8 -249 l0 -250 -95 0
-95 0 0 420 0 420 78 0 77 0 112 -138z m934 -155 c68 -161 128 -294 133 -295
6 -2 43 72 83 165 40 92 99 225 129 296 l56 127 89 0 c49 0 89 -4 89 -9 0 -4
-56 -138 -125 -297 -69 -159 -149 -344 -178 -411 l-52 -123 -95 0 -96 0 -118
278 c-66 152 -148 341 -182 420 l-63 142 103 0 102 0 125 -293z m1309 218 l0
-75 -222 -2 -223 -3 -3 -92 -3 -93 201 0 200 0 0 -75 0 -75 -200 0 -200 0 0
-100 0 -100 230 0 230 0 0 -75 0 -75 -320 0 -320 0 0 420 0 420 315 0 315 0 0
-75z m1590 -5 l0 -80 -135 0 -135 0 0 -340 0 -340 -95 0 -95 0 0 340 0 339
-132 3 -133 3 -3 78 -3 77 366 0 365 0 0 -80z"/>
<path d="M2511 2967 c-54 -19 -75 -58 -72 -128 1 -26 73 -119 92 -119 6 0 34
16 64 35 77 49 102 107 74 168 -20 43 -100 65 -158 44z"/>
<path d="M2385 2428 c-55 -51 -58 -57 -63 -109 -6 -79 14 -114 85 -146 49 -22
65 -25 142 -21 70 3 99 10 145 32 31 15 56 31 54 35 -8 19 -272 256 -288 259
-11 2 -41 -18 -75 -50z"/>
<path d="M710 2715 l0 -205 159 0 c154 0 160 1 212 28 39 20 58 38 76 71 29
56 31 138 4 198 -38 84 -125 113 -333 113 l-118 0 0 -205z"/>
</g>
</svg>
