<?xml version="1.0" standalone="no"?>
<!DOCTYPE svg PUBLIC "-//W3C//DTD SVG 20010904//EN"
 "http://www.w3.org/TR/2001/REC-SVG-20010904/DTD/svg10.dtd">
<svg version="1.0" xmlns="http://www.w3.org/2000/svg"
 width="700.000000pt" height="700.000000pt" viewBox="0 0 700.000000 700.000000"
 preserveAspectRatio="xMidYMid meet">
<metadata>
Created by potrace 1.14, written by Peter Selinger 2001-2017
</metadata>
<g transform="translate(0.000000,700.000000) scale(0.100000,-0.100000)"
fill="#000000" stroke="none">
<path d="M3280 6994 c-19 -2 -84 -9 -145 -14 -578 -56 -1180 -283 -1660 -625
-237 -169 -531 -446 -709 -670 -416 -521 -673 -1147 -748 -1820 -17 -155 -17
-575 0 -730 52 -469 198 -931 418 -1327 290 -523 731 -983 1239 -1294 439
-269 920 -432 1460 -496 145 -17 576 -17 730 0 822 91 1556 447 2131 1034 203
206 348 390 487 618 274 449 433 916 499 1465 16 136 16 592 0 730 -86 725
-352 1347 -803 1885 -122 145 -351 370 -494 484 -510 407 -1117 661 -1775 742
-117 15 -553 27 -630 18z m1051 -1355 c481 -429 890 -796 909 -815 l35 -34
-271 0 -271 0 -637 571 c-351 314 -642 569 -649 566 -7 -3 -262 -229 -567
-503 -305 -273 -590 -528 -633 -566 l-77 -68 -266 0 c-156 0 -264 4 -262 9 4
11 1801 1620 1809 1621 4 0 400 -351 880 -781z m-680 -1278 c116 -44 180 -130
181 -243 2 -113 -53 -198 -179 -281 l-53 -34 110 -102 110 -103 15 35 c8 19
22 61 31 94 l17 60 104 -32 c58 -18 106 -35 108 -37 7 -7 -57 -184 -82 -227
l-26 -45 66 -63 c37 -34 67 -66 67 -69 0 -9 -132 -164 -140 -164 -3 0 -37 29
-75 63 l-69 64 -59 -38 c-179 -116 -467 -126 -643 -23 -217 127 -216 392 2
554 34 25 69 50 80 56 18 10 17 13 -15 50 -88 100 -111 237 -58 340 41 81 112
130 225 159 78 20 211 13 283 -14z m-1621 -18 c127 -47 206 -106 253 -186 80
-137 75 -334 -12 -461 -34 -49 -116 -120 -152 -131 -13 -4 -18 -12 -15 -22 3
-8 62 -95 131 -194 69 -98 125 -181 125 -184 0 -3 -65 -5 -145 -5 l-145 0 -45
63 c-25 34 -78 109 -118 167 l-73 105 -132 3 -132 3 0 -171 0 -171 -137 3
-138 3 -3 603 -2 603 342 -3 c317 -4 347 -6 398 -25z m3680 -83 l0 -110 -315
0 -315 0 0 -160 0 -160 278 -2 277 -3 0 -110 0 -110 -277 -3 -278 -2 -2 -218
-3 -217 -137 -3 -138 -3 0 606 0 605 455 0 455 0 0 -110z m-875 -1951 c66 -17
145 -51 145 -62 0 -7 -12 -42 -27 -80 -21 -53 -30 -66 -42 -61 -81 36 -153 54
-224 54 -120 0 -172 -32 -165 -102 4 -46 39 -66 184 -104 71 -18 143 -39 159
-46 56 -22 115 -71 135 -113 24 -50 27 -140 5 -193 -64 -151 -286 -216 -530
-155 -55 13 -149 54 -168 72 -6 6 44 135 58 149 1 2 25 -8 52 -21 76 -39 150
-57 235 -57 118 0 168 28 168 93 0 39 -48 72 -142 96 -166 44 -216 61 -264 93
-67 46 -94 96 -94 178 1 142 85 230 255 267 64 13 191 9 260 -8z m-3475 -434
l0 -435 -100 0 -100 0 0 435 0 435 100 0 100 0 0 -435z m602 175 l213 -260 3
260 2 260 100 0 100 0 0 -435 0 -435 -83 0 -84 0 -214 261 -214 261 -3 -261
-2 -261 -100 0 -100 0 0 435 0 435 84 0 85 0 213 -260z m869 -52 c98 -231 134
-306 140 -292 4 10 64 150 133 309 l125 290 101 3 c61 2 101 -1 98 -7 -1 -5
-86 -201 -187 -435 l-185 -426 -100 0 -101 0 -165 383 c-90 210 -174 406 -187
435 l-23 52 109 0 109 0 133 -312z m1349 232 l0 -80 -230 0 -230 0 0 -95 0
-95 200 0 200 0 0 -80 0 -80 -200 0 -200 0 0 -100 0 -100 235 0 235 0 0 -80 0
-80 -335 0 -335 0 0 435 0 435 330 0 330 0 0 -80z m1640 0 l0 -80 -135 0 -135
0 0 -355 0 -355 -105 0 -105 0 0 355 0 355 -140 0 -140 0 0 80 0 80 380 0 380
0 0 -80z"/>
<path d="M3415 4188 c-35 -19 -55 -52 -55 -91 0 -46 18 -82 62 -124 l34 -33
51 35 c56 38 90 76 99 112 8 30 -12 79 -40 98 -24 18 -122 20 -151 3z"/>
<path d="M3331 3660 c-68 -54 -91 -92 -91 -153 0 -62 28 -103 87 -129 84 -37
253 -21 322 31 l24 18 -84 79 c-46 43 -111 105 -145 137 l-61 58 -52 -41z"/>
<path d="M1572 3933 l3 -208 145 0 c172 0 226 12 280 64 94 90 71 263 -43 323
-38 21 -58 23 -215 26 l-172 4 2 -209z"/>
</g>
</svg>
