<svg xmlns="http://www.w3.org/2000/svg" xml:space="preserve" style="fill-rule:evenodd;clip-rule:evenodd;stroke-linejoin:round;stroke-miterlimit:2" viewBox="0 0 209 230"><path d="M.19 0h208.33v229.17H.19z" style="fill:#d4d4d4"/><path d="M159.58 70.83h23.75L104.16 0 25 70.83h23.75l55.41-49.66 55.42 49.66ZM10.4 141.67v-52.5h22.72c4.7 0 8.75.77 12.15 2.32 3.4 1.5 6.02 3.68 7.87 6.53 1.85 2.85 2.78 6.25 2.78 10.2 0 3.9-.93 7.27-2.78 10.12a17.74 17.74 0 0 1-7.87 6.45c-3.4 1.5-7.45 2.25-12.15 2.25H17.14l5.4-5.32v19.95H10.4Zm33.37 0-13.13-19.05h12.98l13.27 19.05H43.77Zm-21.23-18.6-5.4-5.7h15.3c3.75 0 6.55-.8 8.4-2.4 1.85-1.65 2.78-3.9 2.78-6.75 0-2.9-.93-5.15-2.78-6.75-1.85-1.6-4.65-2.4-8.4-2.4h-15.3l5.4-5.78v29.78Zm80.74 19.5c-3.85 0-7.27-.63-10.27-1.88s-5.38-2.95-7.13-5.1a11.43 11.43 0 0 1-2.62-7.42 14 14 0 0 1 1.72-6.98 18.12 18.12 0 0 1 5.48-5.85 52.91 52.91 0 0 1 9.52-5.4c2.8-1.3 5-2.45 6.6-3.45a12 12 0 0 0 3.38-2.85c.65-.95.97-1.9.97-2.85 0-1.3-.45-2.35-1.35-3.15-.85-.8-2.12-1.2-3.82-1.2-1.8 0-3.2.45-4.2 1.35-1 .9-1.5 2.05-1.5 3.45 0 .75.15 1.5.45 2.25.3.7.87 1.53 1.72 2.48.85.9 2.05 2.07 3.6 3.52l27.68 25.65-6.38 7.43-30.52-28.35a33.53 33.53 0 0 1-4.2-4.5 16.49 16.49 0 0 1-2.33-4.13 13.2 13.2 0 0 1-.67-4.2c0-2.55.67-4.8 2.02-6.75a12.91 12.91 0 0 1 5.7-4.5 20.9 20.9 0 0 1 8.63-1.65c3.05 0 5.67.5 7.87 1.5 2.25.95 4 2.33 5.25 4.13 1.3 1.8 1.95 3.95 1.95 6.45 0 2.2-.55 4.22-1.65 6.07-1.1 1.8-2.82 3.5-5.17 5.1a54.72 54.72 0 0 1-9.08 4.88 34.26 34.26 0 0 0-6.07 3.37 11.19 11.19 0 0 0-3.15 3.23 7.09 7.09 0 0 0-.98 3.67c0 1.25.38 2.38 1.13 3.38.8 1 1.9 1.77 3.3 2.32 1.4.55 3.05.83 4.95.83 3.05 0 5.85-.7 8.4-2.1a18.27 18.27 0 0 0 6.45-6.38c1.8-2.85 3.07-6.3 3.82-10.35l9.38 2.93a34.22 34.22 0 0 1-5.63 13.27 28.16 28.16 0 0 1-9.97 8.7 28.38 28.38 0 0 1-13.28 3.08Zm70.56-29.78h25.2v9.75h-25.2v-9.75Zm.9 28.88h-12.15v-52.5h39.67v9.75h-27.52v42.75ZM4.5 216.67v-37.92h8.77v37.92H4.5Zm18.31 0v-37.92h7.26l22.37 27.3h-3.52v-27.3h8.67v37.92h-7.2l-22.43-27.3h3.52v27.3H22.8Zm55.5 0-16.35-37.92h9.48l14.3 33.58h-5.58l14.51-33.58h8.72L87 216.67h-8.67Zm36.86-22.64h18.26v6.82h-18.26v-6.83Zm.65 15.6h20.64v7.04H107.1v-37.92h28.66v7.04h-19.94v23.84Zm40.62 7.69c-3.03 0-5.94-.4-8.72-1.2a20.77 20.77 0 0 1-6.72-3.2l2.98-6.6a21.94 21.94 0 0 0 12.51 3.95c1.74 0 3.13-.16 4.18-.48a5.07 5.07 0 0 0 2.38-1.46c.5-.62.76-1.32.76-2.12 0-1-.4-1.8-1.2-2.38a9.07 9.07 0 0 0-3.14-1.46c-1.3-.4-2.74-.76-4.33-1.09a61.2 61.2 0 0 1-4.71-1.3 20.07 20.07 0 0 1-4.28-1.95 9.84 9.84 0 0 1-3.2-3.14 9.43 9.43 0 0 1-1.19-4.98c0-2.17.58-4.14 1.74-5.9a12 12 0 0 1 5.3-4.28c2.39-1.09 5.37-1.63 8.94-1.63 2.38 0 4.73.29 7.04.87 2.31.54 4.35 1.37 6.12 2.49l-2.7 6.66a22.19 22.19 0 0 0-10.51-2.98c-1.7 0-3.09.2-4.17.6-1.09.4-1.86.92-2.33 1.57-.47.61-.7 1.34-.7 2.17 0 .97.4 1.77 1.18 2.38.8.58 1.85 1.05 3.15 1.4 1.3.37 2.72.73 4.28 1.09 1.59.36 3.16.78 4.7 1.25 1.6.47 3.04 1.1 4.34 1.9a9 9 0 0 1 4.39 8.07c0 2.12-.6 4.07-1.79 5.84a12.47 12.47 0 0 1-5.36 4.28c-2.35 1.09-5.33 1.63-8.94 1.63Zm29.95-.65V185.9h-12.13v-7.15h33.04v7.15h-12.13v30.77h-8.78Z" style="fill:#1f2020;fill-rule:nonzero"/></svg>