<svg xmlns="http://www.w3.org/2000/svg" width="50" height="55" fill="none"><path fill="#fff" d="M38.3 17H44L25 0 6 17h5.7L25 5l13.3 12ZM2.5 34V21.4h5.4a7 7 0 0 1 3 .6c.8.3 1.4.8 1.9 1.5.4.7.6 1.5.6 2.5s-.2 1.7-.6 2.4c-.5.7-1.1 1.2-2 1.6-.8.3-1.7.5-2.9.5H4.1l1.3-1.3V34h-3Zm8 0-3.1-4.6h3l3.3 4.6h-3.2Zm-5-4.5L4 28.2h3.7c.9 0 1.6-.2 2-.6.4-.4.7-1 .7-1.6a2 2 0 0 0-.7-1.6c-.4-.4-1.1-.6-2-.6H4l1.3-1.4v7.1Zm19.3 4.7c-1 0-1.8-.1-2.5-.4-.7-.3-1.3-.7-1.7-1.3-.4-.5-.6-1-.6-1.7s.1-1.2.4-1.7c.3-.5.7-1 1.3-1.4.6-.5 1.4-.9 2.3-1.3a15 15 0 0 0 1.6-.8l.8-.7.2-.7a1 1 0 0 0-.3-.8c-.2-.2-.5-.3-1-.3-.4 0-.7.2-1 .4a1 1 0 0 0-.3.8l.1.5c0 .2.2.4.4.6l.9.9 6.6 6.1-1.5 1.8-7.3-6.8a8 8 0 0 1-1-1 4 4 0 0 1-.6-1l-.1-1c0-.7.1-1.2.4-1.7.4-.5.8-.8 1.4-1a5 5 0 0 1 2-.5c.8 0 1.4.2 2 .4.5.2 1 .6 1.2 1 .3.4.5 1 .5 1.5 0 .6-.1 1-.4 1.5l-1.2 1.2-2.2 1.2-1.5.8c-.3.3-.6.5-.7.8-.2.2-.3.5-.3.9 0 .3.1.5.3.8l.8.5c.3.2.7.2 1.2.2.7 0 1.4-.1 2-.5.6-.3 1.1-.8 1.6-1.5a7 7 0 0 0 .9-2.5l2.2.7a8.2 8.2 0 0 1-1.3 3.2 6.8 6.8 0 0 1-5.6 2.8Zm17-7.1h6v2.3h-6v-2.3Zm.1 6.9H39V21.4h9.5v2.3H42V34ZM1 52v-9.1h2.2V52H1Zm4.5 0v-9.1h1.7l5.4 6.6h-.9v-6.6h2.1V52h-1.7l-5.4-6.6h.9V52H5.5Zm13.3 0-4-9.1h2.3l3.5 8h-1.4l3.5-8h2.1l-4 9.1h-2Zm8.8-5.4H32v1.6h-4.4v-1.6Zm.2 3.7h5V52h-7.1v-9.1h6.9v1.7h-4.8v5.7Zm9.7 1.9c-.7 0-1.4-.1-2-.3a5 5 0 0 1-1.7-.8l.8-1.6a5.4 5.4 0 0 0 3 1c.4 0 .7 0 1-.2.2 0 .4-.2.5-.3.2-.1.2-.3.2-.5 0-.3 0-.4-.3-.6l-.7-.3-1-.3L36 48l-1-.5-.8-.7c-.2-.3-.3-.7-.3-1.2s.2-1 .4-1.4c.3-.5.7-.8 1.3-1 .6-.3 1.3-.5 2.2-.5a7 7 0 0 1 1.6.3c.6 0 1 .3 1.5.5l-.6 1.6a5.3 5.3 0 0 0-2.6-.7 3 3 0 0 0-1 .2c-.2 0-.4.2-.5.4l-.2.5c0 .2.1.4.3.5l.8.4a25 25 0 0 0 2.1.5l1 .5c.4.2.6.4.8.8.2.3.3.7.3 1.1 0 .5-.1 1-.4 1.4a3 3 0 0 1-1.3 1c-.6.3-1.3.5-2.2.5Zm7.2-.2v-7.4h-2.9V43h8v1.7h-3V52h-2Z"/></svg>