<svg aria-hidden="true" style="position: absolute; width: 0; height: 0; overflow: hidden;" version="1.1" xmlns="http://www.w3.org/2000/svg" xmlns:xlink="http://www.w3.org/1999/xlink">
<defs>
<symbol id="icon-rf_logo" viewBox="0 0 29 32">
<path fill="#fff" style="fill: var(--color1, #fff)" d="M22.284 9.891h3.316l-11.055-9.891-11.055 9.891h3.316l7.738-6.982 7.738 6.982zM1.455 19.782v-7.331h3.142c0.028-0.001 0.061-0.001 0.093-0.001 0.598 0 1.166 0.129 1.678 0.361l-0.026-0.010c0.465 0.175 0.815 0.465 1.105 0.873 0.233 0.407 0.349 0.873 0.349 1.455s-0.116 0.989-0.349 1.396c-0.291 0.407-0.64 0.698-1.164 0.931-0.465 0.175-0.989 0.291-1.687 0.291h-2.211l0.756-0.756v2.793h-1.745zM6.109 19.782l-1.804-2.676h1.745l1.92 2.676h-1.862zM3.2 17.164l-0.873-0.756h2.153c0.524 0 0.931-0.116 1.164-0.349s0.407-0.582 0.407-0.931c0.001-0.014 0.001-0.030 0.001-0.046 0-0.354-0.158-0.67-0.407-0.884l-0.002-0.001c-0.233-0.233-0.64-0.349-1.164-0.349h-2.153l0.756-0.815v4.131zM14.429 19.898c-0.582 0-1.047-0.058-1.455-0.233s-0.756-0.407-0.989-0.756c-0.233-0.291-0.349-0.582-0.349-0.989s0.058-0.698 0.233-0.989c0.175-0.291 0.407-0.582 0.756-0.815 0.349-0.291 0.815-0.524 1.338-0.756 0.372-0.159 0.677-0.315 0.972-0.488l-0.041 0.022 0.465-0.407 0.116-0.407c0.001-0.014 0.002-0.031 0.002-0.048 0-0.164-0.068-0.312-0.176-0.417l-0-0c-0.116-0.116-0.291-0.175-0.582-0.175-0.233 0-0.407 0.116-0.582 0.233-0.109 0.106-0.177 0.254-0.177 0.417 0 0.017 0.001 0.034 0.002 0.050l-0-0.002 0.058 0.291c0 0.116 0.116 0.233 0.233 0.349l0.524 0.524 3.84 3.549-0.873 1.047-4.247-3.956c-0.213-0.179-0.403-0.369-0.576-0.575l-0.006-0.007c-0.138-0.167-0.255-0.359-0.343-0.567l-0.006-0.015-0.058-0.582c0-0.407 0.058-0.698 0.233-0.989 0.233-0.291 0.465-0.465 0.815-0.582 0.34-0.169 0.737-0.275 1.158-0.291l0.005-0c0.465 0 0.815 0.116 1.164 0.233 0.291 0.116 0.582 0.349 0.698 0.582 0.175 0.233 0.291 0.582 0.291 0.873 0 0.349-0.058 0.582-0.233 0.873l-0.698 0.698-1.28 0.698-0.873 0.465c-0.175 0.175-0.349 0.291-0.407 0.465-0.116 0.116-0.175 0.291-0.175 0.524 0 0.175 0.058 0.291 0.175 0.465l0.465 0.291c0.175 0.116 0.407 0.116 0.698 0.116 0.407 0 0.815-0.058 1.164-0.291 0.349-0.175 0.64-0.465 0.931-0.873 0.253-0.418 0.437-0.908 0.521-1.431l0.003-0.023 1.28 0.407c-0.127 0.706-0.392 1.333-0.767 1.878l0.010-0.016c-0.728 0.992-1.889 1.63-3.2 1.63-0.021 0-0.041-0-0.062-0l0.003 0zM24.32 15.767h3.491v1.338h-3.491v-1.338zM24.378 19.782h-1.687v-7.331h5.527v1.338h-3.782v5.993zM0.582 30.255v-5.295h1.28v5.295h-1.28zM3.2 30.255v-5.295h0.989l3.142 3.84h-0.524v-3.84h1.222v5.295h-0.989l-3.142-3.84h0.524v3.84h-1.222zM10.938 30.255l-2.327-5.295h1.338l2.036 4.655h-0.815l2.036-4.655h1.222l-2.327 5.295h-1.164zM16.058 27.113h2.56v0.931h-2.56v-0.931zM16.175 29.265h2.909v0.989h-4.131v-5.295h4.015v0.989h-2.793v3.316zM21.818 30.371c-0.407 0-0.815-0.058-1.164-0.175-0.377-0.099-0.708-0.259-0.997-0.471l0.008 0.006 0.465-0.931c0.486 0.35 1.089 0.565 1.741 0.582l0.004 0c0.233 0 0.407 0 0.582-0.116 0.116 0 0.233-0.116 0.291-0.175 0.116-0.058 0.116-0.175 0.116-0.291 0-0.175 0-0.233-0.175-0.349l-0.407-0.175-0.582-0.175-0.756-0.175-0.582-0.291-0.465-0.407c-0.116-0.175-0.175-0.407-0.175-0.698s0.116-0.582 0.233-0.815c0.175-0.291 0.407-0.465 0.756-0.582 0.349-0.175 0.756-0.291 1.28-0.291 0.341 0.024 0.658 0.086 0.96 0.183l-0.029-0.008c0.349 0 0.582 0.175 0.873 0.291l-0.349 0.931c-0.434-0.253-0.956-0.404-1.512-0.407h-0.001c-0.211 0.006-0.41 0.048-0.594 0.12l0.012-0.004c-0.116 0-0.233 0.116-0.291 0.233l-0.116 0.291c0 0.116 0.058 0.233 0.175 0.291l0.465 0.233c0.301 0.092 0.712 0.193 1.129 0.276l0.093 0.015 0.582 0.291c0.233 0.116 0.349 0.233 0.465 0.465 0.116 0.175 0.175 0.407 0.175 0.64 0 0.291-0.058 0.582-0.233 0.815-0.192 0.257-0.448 0.457-0.745 0.578l-0.012 0.004c-0.349 0.175-0.756 0.291-1.28 0.291zM26.007 30.255v-4.305h-1.687v-0.931h4.655v0.989h-1.745v4.247h-1.164z"></path>
</symbol>
</defs>
</svg>
