<svg xmlns="http://www.w3.org/2000/svg" width="73" height="73" fill="none"><circle cx="36.5" cy="36.5" r="36.5" fill="#253759"/><path fill="#fff" d="M49.3 23H55L36 6 17 23h5.7L36 11.08 49.3 23ZM21.52 40l-2.43-3.51h-2.68V40h-2.92V27.4h5.46c1.11 0 2.08.19 2.9.56.82.37 1.46.9 1.9 1.58.45.69.67 1.5.67 2.43 0 .94-.23 1.75-.68 2.43a4.24 4.24 0 0 1-1.91 1.55L24.65 40h-3.13Zm-.05-8.03c0-.7-.23-1.25-.69-1.62-.45-.38-1.12-.57-2-.57h-2.37v4.39h2.38c.87 0 1.54-.2 2-.58a2 2 0 0 0 .68-1.62Zm20.04 8.25L40 38.82c-1.2.93-2.6 1.4-4.21 1.4-.91 0-1.74-.15-2.47-.44-.73-.3-1.3-.71-1.73-1.24a2.84 2.84 0 0 1-.6-1.78c0-.78.2-1.46.64-2.05A6.56 6.56 0 0 1 33.75 33a5.28 5.28 0 0 1-.99-1.33c-.2-.44-.3-.88-.3-1.34 0-.6.16-1.15.48-1.62a3.1 3.1 0 0 1 1.37-1.08 5.1 5.1 0 0 1 2.07-.4c1.1 0 1.97.27 2.63.8.66.52.99 1.22.99 2.1 0 .65-.2 1.23-.6 1.73-.38.5-1 1-1.87 1.46l2.3 2.14c.28-.57.5-1.23.64-1.96l2.25.7a8.23 8.23 0 0 1-1.15 2.87l1.47 1.36-1.53 1.79Zm-5.13-11.07c-.42 0-.75.1-1 .32s-.37.5-.37.83c0 .25.07.49.2.72.13.21.4.5.78.88a5.21 5.21 0 0 0 1.27-.86c.24-.27.36-.55.36-.85 0-.31-.1-.56-.32-.76-.22-.19-.52-.28-.92-.28Zm-.4 8.87c.88 0 1.67-.25 2.36-.74l-3.04-2.84c-.56.32-.96.64-1.2.95a1.7 1.7 0 0 0-.36 1.06c0 .47.2.85.6 1.14.42.29.96.43 1.65.43Zm16.96-8.28v3.33h5.83v2.34h-5.83V40h-2.92V27.4h9.52v2.34h-6.6ZM12.08 48.9h2.1V58h-2.1v-9.1Zm12.74 0V58H23.1l-4.54-5.52V58h-2.08v-9.1h1.75l4.52 5.52V48.9h2.08Zm10.98 0L31.86 58h-2.08l-3.92-9.1h2.27l2.77 6.5 2.8-6.5h2.1Zm7.94 7.41V58h-7.05v-9.1h6.88v1.69h-4.79v1.98h4.23v1.63h-4.23v2.11h4.96Zm4.8 1.85c-.73 0-1.42-.1-2.1-.29-.67-.2-1.2-.45-1.61-.77l.71-1.58a5.23 5.23 0 0 0 3 .95c.6 0 1.05-.1 1.33-.26.29-.19.43-.42.43-.72 0-.22-.09-.4-.26-.53a1.78 1.78 0 0 0-.65-.35c-.26-.09-.61-.19-1.06-.29-.7-.16-1.27-.33-1.7-.5a2.82 2.82 0 0 1-1.15-.79 2.16 2.16 0 0 1-.47-1.45c0-.53.14-1 .43-1.43.29-.44.71-.78 1.29-1.03a5.33 5.33 0 0 1 2.12-.38 7 7 0 0 1 1.7.21c.55.14 1.04.34 1.45.6l-.65 1.6a5.07 5.07 0 0 0-2.52-.72c-.59 0-1.02.1-1.31.29a.88.88 0 0 0-.42.75c0 .32.16.55.48.7.33.15.83.3 1.5.45.7.16 1.26.33 1.7.5.44.16.82.42 1.13.77.32.36.48.84.48 1.45 0 .51-.14 1-.44 1.42a2.9 2.9 0 0 1-1.3 1.02c-.58.25-1.28.38-2.12.38Zm7.18-7.54h-2.91V48.9h7.93v1.72h-2.91V58h-2.1v-7.38Z"/></svg>