<svg width="72" height="72" viewBox="0 0 72 72" fill="none" xmlns="http://www.w3.org/2000/svg">
<g clip-path="url(#clip0_130_1065)">
<path d="M66.9565 25.908V15.4657L56.4598 10.2135L46.2537 0L36 2.56411L25.7463 0L15.5402 10.2135L5.04352 15.4657V25.908L0 36.0024L5.04352 46.0968V56.5391L15.5402 61.7912L25.7463 72.0048L36 69.4407L46.2537 72.0048L56.4598 61.7912L66.9565 56.5391V46.0968L72 36.0024L66.9565 25.908ZM62.1939 44.972V53.5937L53.9833 57.702L44.7964 66.724L36 64.5221L27.2036 66.724L18.631 58.1452L9.8013 53.5889V44.972L5.32451 36.0024L9.80606 27.0328V18.4111L18.0167 14.3028L27.2084 5.27596L36.0048 7.47786L44.8012 5.27596L53.3737 13.8548L62.2035 18.4111V27.0328L66.6755 36.0024L62.1939 44.972Z" fill="#0957CB"/>
<path d="M48.6013 20.0216L20.0273 48.6165L23.3949 51.9865L51.9689 23.3917L48.6013 20.0216Z" fill="#0957CB"/>
<path d="M26.4739 33.6189C30.4125 33.6189 33.6177 30.4114 33.6177 26.4699C33.6177 22.5284 30.4125 19.3209 26.4739 19.3209C22.5353 19.3209 19.3301 22.5284 19.3301 26.4699C19.3301 30.4114 22.5353 33.6189 26.4739 33.6189ZM26.4739 24.0869C27.7883 24.0869 28.8551 25.1545 28.8551 26.4699C28.8551 27.7853 27.7883 28.8529 26.4739 28.8529C25.1594 28.8529 24.0926 27.7853 24.0926 26.4699C24.0926 25.1545 25.1594 24.0869 26.4739 24.0869Z" fill="#0957CB"/>
<path d="M45.5227 38.3857C41.5841 38.3857 38.3789 41.5933 38.3789 45.5347C38.3789 49.4762 41.5841 52.6837 45.5227 52.6837C49.4613 52.6837 52.6665 49.4762 52.6665 45.5347C52.6665 41.5933 49.4613 38.3857 45.5227 38.3857ZM45.5227 47.9177C44.2082 47.9177 43.1414 46.8502 43.1414 45.5347C43.1414 44.2193 44.2082 43.1517 45.5227 43.1517C46.8372 43.1517 47.904 44.2193 47.904 45.5347C47.904 46.8502 46.8372 47.9177 45.5227 47.9177Z" fill="#0957CB"/>
</g>
<defs>
<clipPath id="clip0_130_1065">
<rect width="72" height="72" fill="white"/>
</clipPath>
</defs>
</svg>
