<svg width="72" height="72" viewBox="0 0 72 72" fill="none" xmlns="http://www.w3.org/2000/svg">
<path d="M15.6522 36.4927H6.08067C4.81494 36.4927 3.78906 37.6961 3.78906 39.1808V67.3118C3.78906 68.7966 4.81494 69.9999 6.08067 69.9999H15.6522C16.9179 69.9999 17.9438 68.7966 17.9438 67.3118V39.1808C17.9438 37.6961 16.9179 36.4927 15.6522 36.4927ZM13.3606 64.6234H8.37227V41.8686H13.3606V64.6234Z" fill="#0957CB"/>
<path d="M33.6695 21.6061H24.0982C22.8325 21.6061 21.8066 22.8095 21.8066 24.2942V67.3116C21.8066 68.7964 22.8325 69.9998 24.0982 69.9998H33.6698C34.9355 69.9998 35.9614 68.7964 35.9614 67.3116V24.2942C35.9611 22.8098 34.9352 21.6061 33.6695 21.6061ZM31.3779 64.6235H26.3896V26.9823H31.3779V64.6235Z" fill="#0957CB"/>
<path d="M51.6913 38.7134H42.1197C40.854 38.7134 39.8281 39.9168 39.8281 41.4015V67.3116C39.8281 68.7963 40.854 69.9997 42.1197 69.9997H51.6913C52.957 69.9997 53.9829 68.7963 53.9829 67.3116V41.4015C53.9829 39.9168 52.957 38.7134 51.6913 38.7134ZM49.3996 64.6235H44.4113V44.0896H49.3996V64.6235Z" fill="#0957CB"/>
<path d="M69.7091 22.5983H60.1373C58.8716 22.5983 57.8457 23.8016 57.8457 25.2864V67.3117C57.8457 68.7964 58.8716 69.9998 60.1373 69.9998H69.7088C70.9746 69.9998 72.0005 68.7964 72.0005 67.3117V25.2864C72.0007 23.8016 70.9746 22.5983 69.7091 22.5983ZM67.4175 64.6236H62.4289V27.9745H67.4172V64.6236H67.4175Z" fill="#0957CB"/>
<path d="M45.5566 27.4607C46.3908 28.1719 47.5271 28.1417 48.3333 27.3873L65.4615 11.3536L65.3856 13.996C65.3431 15.4798 66.3338 16.7232 67.5988 16.7731C67.6253 16.774 67.6513 16.7746 67.6775 16.7746C68.9076 16.7746 69.9248 15.6298 69.9665 14.177L70.2367 4.77878C70.2578 4.03477 70.0154 3.31376 69.5668 2.78749C69.1181 2.26092 68.5014 1.97538 67.8692 2.00167L59.8573 2.31857C58.5923 2.36844 57.6015 3.61214 57.6441 5.09568C57.6866 6.57922 58.7425 7.73899 60.0116 7.69179L62.115 7.60876L46.8394 21.9083L29.469 7.09832C28.7082 6.44959 27.6867 6.41196 26.893 7.00364L1.06331 26.2475C-0.0050825 27.0435 -0.321069 28.7047 0.3575 29.9577C0.794178 30.7641 1.53589 31.205 2.29391 31.205C2.71403 31.205 3.13951 31.0694 3.52043 30.7856L28.0345 12.5214L45.5566 27.4607Z" fill="#0957CB"/>
</svg>
