<svg width="72" height="72" viewBox="0 0 72 72" fill="none" xmlns="http://www.w3.org/2000/svg">
<path d="M68.9875 44.4153H59.4199V34.3561H67.5361C69.4242 34.3561 70.3614 32.3341 69.0179 31.1703L36.7573 3.23401C35.9347 2.52205 34.616 2.52181 33.7937 3.23401L1.53364 31.1703C0.187886 32.3356 1.13022 34.3561 3.01546 34.3561H11.1314V67.4401C11.1314 68.4672 12.0774 69.2999 13.2443 69.2999H27.3909C28.5577 69.2999 29.5037 68.4672 29.5037 67.4401V53.7725H41.0476V67.4401C41.0476 68.4672 41.9933 69.2999 43.1604 69.2999C46.1204 69.2999 65.8509 69.2999 68.9875 69.2999C70.1547 69.2999 71.1004 68.4672 71.1004 67.4401C71.1004 64.9136 71.1004 48.7617 71.1004 46.2752C71.1004 45.2481 70.1544 44.4153 68.9875 44.4153ZM48.2815 46.275C48.2815 46.7816 48.2815 65.0579 48.2815 65.5799H45.2733V51.9124C45.2733 50.8855 44.3273 50.0527 43.1604 50.0527H27.3909C26.224 50.0527 25.278 50.8855 25.278 51.9126V65.5802H15.3571V32.496C15.3571 31.4689 14.4111 30.6362 13.2443 30.6362H8.17592L35.2758 7.16901L62.3754 30.6362H57.307C56.1399 30.6362 55.1942 31.4689 55.1942 32.496V44.4151H50.3943C49.2275 44.4151 48.2815 45.2478 48.2815 46.275ZM66.8747 65.5799H52.5072V62.2448H66.8747V65.5799ZM66.8747 58.5251H52.5072V55.19H66.8747V58.5251ZM66.8747 51.4702H52.5072V48.1351C55.6272 48.1351 60.3059 48.1351 66.8747 48.1351V51.4702Z" fill="#0957CB"/>
</svg>
