<svg width="80" height="79" viewBox="0 0 80 79" fill="none" xmlns="http://www.w3.org/2000/svg">
<path fill-rule="evenodd" clip-rule="evenodd" d="M42.3457 4.36505C42.3457 3.68477 42.0983 3.03235 41.6579 2.55132C41.2175 2.07029 40.6203 1.80005 39.9975 1.80005C39.3747 1.80005 38.7775 2.07029 38.3371 2.55132C37.8967 3.03235 37.6493 3.68477 37.6493 4.36505V10.35H31.469C30.3691 10.3495 29.2945 10.7106 28.385 11.3863L23.0782 15.333C22.9479 15.4294 22.7941 15.4806 22.6367 15.48H9.79384C9.17107 15.48 8.57381 15.7503 8.13344 16.2313C7.69307 16.7124 7.44568 17.3648 7.44568 18.045C7.44568 18.7253 7.69307 19.3777 8.13344 19.8588C8.57381 20.3398 9.17107 20.6101 9.79384 20.6101H14.7313L4.18956 46.8757C3.99044 47.3882 3.94684 47.957 4.06516 48.4986C4.18348 49.0402 4.45749 49.5261 4.84704 49.8852C5.09752 50.1041 5.35112 50.3128 5.81449 50.6411C6.39683 51.0549 7.22965 51.5918 8.29415 52.1219C10.4232 53.1856 13.4977 54.2423 17.2986 54.2423C20.4045 54.2488 23.4754 53.5257 26.303 52.1219C27.3675 51.5918 28.2003 51.0549 28.7827 50.6411C29.2523 50.3093 29.5028 50.1007 29.7532 49.8784C30.1459 49.5233 30.4221 49.0383 30.5402 48.4966C30.6582 47.9549 30.6117 47.3859 30.4076 46.8757L19.8628 20.6101H22.6367C23.7357 20.6101 24.8096 20.2475 25.7175 19.5738L31.0275 15.6271C31.1569 15.5314 31.3096 15.4802 31.4658 15.48H37.6493V65.07H23.6011C22.9783 65.07 22.381 65.3403 21.9406 65.8213C21.5003 66.3024 21.2529 66.9548 21.2529 67.635C21.2529 68.3153 21.5003 68.9678 21.9406 69.4488C22.381 69.9298 22.9783 70.2001 23.6011 70.2001H56.3939C57.0167 70.2001 57.614 69.9298 58.0544 69.4488C58.4947 68.9678 58.7421 68.3153 58.7421 67.635C58.7421 66.9548 58.4947 66.3024 58.0544 65.8213C57.614 65.3403 57.0167 65.07 56.3939 65.07H42.3457V15.48H48.526C48.6826 15.48 48.8391 15.5314 48.9644 15.6271L54.2775 19.5738C55.1854 20.2475 56.2593 20.6101 57.3583 20.6101H60.1322L49.5874 46.8757C49.3766 47.4008 49.3329 47.9881 49.4635 48.5435C49.594 49.099 49.8912 49.5906 50.3075 49.94C50.3451 49.9707 50.3075 49.94 50.3138 49.94C50.6243 50.1955 50.9484 50.4307 51.2843 50.6445C51.8636 51.0275 52.6932 51.52 53.7577 52.0125C56.5888 53.3051 59.628 53.9656 62.6964 53.9551C65.7661 53.965 68.8065 53.3033 71.6382 52.0091C72.6965 51.52 73.5293 51.0275 74.1116 50.6445C74.4464 50.4286 74.7703 50.1934 75.0822 49.94C75.4986 49.5906 75.7957 49.099 75.9263 48.5435C76.0568 47.9881 76.0132 47.4008 75.8023 46.8757L65.2637 20.6101H70.2043C70.8271 20.61 71.4243 20.3398 71.8647 19.8588C72.3051 19.3777 72.5525 18.7253 72.5525 18.045C72.5525 17.3648 72.3051 16.7124 71.8647 16.2313C71.4243 15.7503 70.8271 15.48 70.2043 15.48H57.3614C57.2051 15.4799 57.0525 15.4287 56.9231 15.333L51.61 11.3863C50.7014 10.7113 49.628 10.3502 48.5292 10.35H42.3457V4.36505ZM9.2929 46.9372C11.7572 48.3696 14.5071 49.1156 17.2986 49.1089C20.0901 49.1156 22.8399 48.3696 25.3043 46.9372L17.2986 26.9986L9.2929 46.9372ZM54.7221 46.8551C54.9788 46.9919 55.2668 47.139 55.5831 47.286C57.2424 48.0487 59.6689 48.8251 62.6964 48.8251C65.4565 48.8336 68.1826 48.1602 70.6708 46.8551L62.6964 26.9952L54.7221 46.8551Z" fill="#0957CB"/>
</svg>
