<svg width="72" height="72" viewBox="0 0 72 72" fill="none" xmlns="http://www.w3.org/2000/svg">
<path fill-rule="evenodd" clip-rule="evenodd" d="M55.5908 26.268C58.3124 23.5464 58.3124 19.1337 55.5908 16.412C52.8692 13.6903 48.4564 13.6903 45.7348 16.412C43.0129 19.1337 43.0129 23.5464 45.7348 26.268C48.4564 28.9898 52.8692 28.9898 55.5908 26.268ZM52.6882 19.3146C53.8067 20.4332 53.8067 22.2469 52.6882 23.3655C51.5696 24.4841 49.7559 24.4841 48.6374 23.3655C47.5186 22.2469 47.5186 20.4332 48.6374 19.3146C49.7559 18.196 51.5696 18.196 52.6882 19.3146Z" fill="#0957CB"/>
<path fill-rule="evenodd" clip-rule="evenodd" d="M4.07514 35.9413C2.0713 37.945 2.07131 41.194 4.07514 43.1977L28.8032 67.9256C30.8068 69.9295 34.0558 69.9295 36.0595 67.9256L67.9267 36.0586C68.8889 35.0964 69.4294 33.7914 69.4294 32.4306V7.70252C69.4294 4.8687 67.1321 2.57141 64.2984 2.57141H39.5702C38.2094 2.57141 36.9044 3.112 35.9422 4.07428L4.07514 35.9413ZM34.2497 62.4793C33.2453 63.4834 31.6173 63.4834 30.6129 62.4793L9.52165 41.3876C8.51746 40.3835 8.51746 38.7555 9.52165 37.7511L38.8171 8.45569C39.2995 7.97344 39.9534 7.70252 40.6356 7.70252H61.727C63.1469 7.70252 64.2984 8.8538 64.2984 10.2739V31.3652C64.2984 32.0474 64.0274 32.7014 63.5452 33.1835L34.2497 62.4793Z" fill="#0957CB"/>
</svg>
